# xmcd
#
# Track frame offsets:
#	150
#	16874
#	36161
#	54411
#	73680
#	95030
#	111715
#	131986
#	149764
#	177816
#
# Disc length: 2592 seconds
#
# Revision: 1
# Processed by: cddbd v1.5.2PL0 Copyright (c) Steve Scherf et al.
# Submitted via: EasyCDDAExtractor 15.3.0.1
#
DISCID=9a0a1e0a
DTITLE=Mayra Mayra - Distinta... Diferente
DYEAR=2002
DGENRE=Latin
TTITLE0=Tu No Tienes Corazon
TTITLE1=Pero Me Acuerdo De Ti
TTITLE2=Besame
TTITLE3=Dime Que Vas A Hacer
TTITLE4=Porque Te Hice Mal
TTITLE5=Quiereme
TTITLE6=Hambre
TTITLE7=Con Todos Los Sentidos (Balada)
TTITLE8=Tu No Tienes Corazon (Remix)
TTITLE9=Tu No Tienes Corazon (Remix 2)
EXTD=
EXTT0=
EXTT1=
EXTT2=
EXTT3=
EXTT4=
EXTT5=
EXTT6=
EXTT7=
EXTT8=
EXTT9=
PLAYORDER=
